<svg aria-hidden="true" style="position: absolute; width: 0; height: 0; overflow: hidden;" version="1.1" xmlns="http://www.w3.org/2000/svg" xmlns:xlink="http://www.w3.org/1999/xlink">
<defs>
<symbol id="icon-mail" viewBox="0 0 32 32">
<path stroke-linejoin="round" stroke-linecap="round" stroke-miterlimit="4" stroke-width="1.3333" d="M25.148 27.035c0.356-0.296 0.698-0.608 1.025-0.937M23.879 16c-0.002-1.972-0.744-3.872-2.079-5.323s-3.166-2.348-5.131-2.514c-1.965-0.166-3.921 0.412-5.48 1.62s-2.609 2.956-2.94 4.9c-0.332 1.944 0.078 3.941 1.149 5.598s2.724 2.85 4.632 3.346c1.909 0.495 3.934 0.257 5.675-0.669s3.071-2.472 3.727-4.332c0.297-0.843 0.449-1.731 0.449-2.625h-0.001z"></path>
<path stroke-linejoin="round" stroke-linecap="round" stroke-miterlimit="4" stroke-width="1.3333" d="M30.333 16c0.004-2.223-0.509-4.416-1.499-6.406s-2.428-3.723-4.203-5.061c-1.774-1.339-3.836-2.246-6.021-2.651s-4.435-0.296-6.571 0.318c-2.136 0.614-4.1 1.716-5.737 3.22s-2.901 3.367-3.694 5.444c-0.793 2.076-1.091 4.309-0.873 6.521s0.948 4.343 2.132 6.224l-0.889 5.413 5.413-0.889c1.949 1.228 4.166 1.967 6.462 2.154s4.603-0.183 6.725-1.079"></path>
<path stroke-linejoin="round" stroke-linecap="round" stroke-miterlimit="4" stroke-width="1.3333" d="M23.43 18.624c-0.963 2.348 0.605 3.611 1.953 3.918 1.645 0.373 4.95-1.346 4.95-6.542"></path>
</symbol>
<symbol id="icon-cross" viewBox="0 0 32 32">
<path d="M16 12.648l11.733-11.733 3.352 3.352-11.733 11.733 11.733 11.733-3.352 3.352-11.733-11.733-11.733 11.733-3.352-3.352 11.733-11.733-11.733-11.733 3.352-3.352 11.733 11.733z"></path>
</symbol>
<symbol id="icon-burger" viewBox="0 0 36 32">
<path d="M0 0h36v4h-36v-4zM0 14h36v4h-36v-4zM0 28h36v4h-36v-4z"></path>
</symbol>
<symbol id="icon-facebook" viewBox="0 0 32 32">
<path d="M0 16.089c0 7.955 5.777 14.569 13.333 15.911v-11.556h-4v-4.444h4v-3.556c0-4 2.577-6.221 6.223-6.221 1.155 0 2.4 0.177 3.555 0.355v4.089h-2.044c-1.956 0-2.4 0.977-2.4 2.223v3.111h4.267l-0.711 4.444h-3.556v11.556c7.556-1.341 13.333-7.955 13.333-15.911 0-8.849-7.2-16.089-16-16.089s-16 7.24-16 16.089z"></path>
</symbol>
<symbol id="icon-twitter" viewBox="0 0 32 32">
<path stroke-linejoin="round" stroke-linecap="round" stroke-miterlimit="4" stroke-width="2.6667" d="M32 5.344c0 0-1.027 2.799-2.933 4.531 2.347 13.327-13.787 23.056-26.4 15.459 3.227 0.133 6.453-0.8 8.8-2.665-7.333-1.999-11-9.862-7.333-15.992 3.227 3.465 8.213 5.464 13.2 5.331-1.32-5.597 5.867-8.796 10.267-5.064 1.613 0 4.4-1.599 4.4-1.599z"></path>
</symbol>
<symbol id="icon-instagram" viewBox="0 0 32 32">
<path d="M9.953 1.421c1.564-0.072 2.063-0.088 6.047-0.088s4.483 0.017 6.045 0.088c1.563 0.071 2.629 0.32 3.563 0.681 0.977 0.369 1.864 0.947 2.597 1.693 0.747 0.732 1.323 1.617 1.691 2.596 0.363 0.933 0.611 2 0.683 3.56 0.072 1.567 0.088 2.065 0.088 6.048 0 3.984-0.017 4.483-0.088 6.047-0.071 1.56-0.32 2.627-0.683 3.56-0.368 0.979-0.945 1.866-1.691 2.599-0.733 0.747-1.62 1.323-2.597 1.691-0.933 0.363-2 0.611-3.56 0.683-1.565 0.072-2.064 0.088-6.048 0.088s-4.483-0.017-6.047-0.088c-1.56-0.071-2.627-0.32-3.56-0.683-0.979-0.368-1.866-0.945-2.599-1.691-0.746-0.732-1.324-1.619-1.692-2.597-0.361-0.933-0.609-2-0.681-3.56-0.072-1.567-0.088-2.065-0.088-6.048 0-3.984 0.017-4.483 0.088-6.045s0.32-2.629 0.681-3.563c0.369-0.979 0.947-1.865 1.693-2.597 0.732-0.746 1.618-1.323 2.596-1.692 0.933-0.361 2-0.609 3.56-0.681h0.001zM21.927 4.061c-1.547-0.071-2.011-0.085-5.927-0.085s-4.38 0.015-5.927 0.085c-1.431 0.065-2.207 0.304-2.724 0.505-0.684 0.267-1.173 0.583-1.687 1.096-0.487 0.473-0.861 1.050-1.096 1.687-0.201 0.517-0.44 1.293-0.505 2.724-0.071 1.547-0.085 2.011-0.085 5.927s0.015 4.38 0.085 5.927c0.065 1.431 0.304 2.207 0.505 2.724 0.235 0.636 0.609 1.213 1.096 1.687 0.473 0.487 1.051 0.861 1.687 1.096 0.517 0.201 1.293 0.44 2.724 0.505 1.547 0.071 2.009 0.085 5.927 0.085s4.38-0.015 5.927-0.085c1.431-0.065 2.207-0.304 2.724-0.505 0.684-0.267 1.173-0.583 1.687-1.096 0.487-0.473 0.861-1.051 1.096-1.687 0.201-0.517 0.44-1.293 0.505-2.724 0.071-1.547 0.085-2.011 0.085-5.927s-0.015-4.38-0.085-5.927c-0.065-1.431-0.304-2.207-0.505-2.724-0.267-0.684-0.583-1.173-1.096-1.687-0.473-0.487-1.050-0.861-1.687-1.096-0.517-0.201-1.293-0.44-2.724-0.505zM14.127 20.521c1.046 0.435 2.211 0.494 3.296 0.166s2.022-1.022 2.652-1.965c0.63-0.942 0.913-2.074 0.801-3.201s-0.612-2.181-1.415-2.981c-0.512-0.511-1.13-0.903-1.812-1.146s-1.408-0.333-2.128-0.262-1.415 0.301-2.036 0.673c-0.62 0.372-1.151 0.877-1.553 1.478s-0.665 1.285-0.772 2c-0.106 0.715-0.053 1.446 0.157 2.138s0.571 1.329 1.056 1.866c0.486 0.536 1.084 0.958 1.752 1.235zM10.669 10.669c0.7-0.7 1.531-1.255 2.446-1.634s1.895-0.574 2.885-0.574c0.99 0 1.97 0.195 2.885 0.574s1.746 0.934 2.446 1.634c0.7 0.7 1.255 1.531 1.634 2.446s0.574 1.895 0.574 2.885-0.195 1.97-0.574 2.885c-0.379 0.915-0.934 1.746-1.634 2.446-1.414 1.414-3.331 2.208-5.331 2.208s-3.917-0.794-5.331-2.208c-1.414-1.414-2.208-3.331-2.208-5.331s0.794-3.917 2.208-5.331zM25.211 9.584c0.173-0.164 0.312-0.36 0.408-0.579s0.147-0.454 0.151-0.692c0.003-0.238-0.041-0.475-0.131-0.696s-0.223-0.422-0.391-0.59c-0.169-0.169-0.369-0.302-0.59-0.391s-0.458-0.134-0.696-0.131c-0.239 0.003-0.474 0.055-0.692 0.151s-0.415 0.235-0.579 0.408c-0.318 0.337-0.493 0.785-0.486 1.249s0.194 0.907 0.522 1.235c0.328 0.328 0.771 0.515 1.235 0.522s0.912-0.167 1.249-0.486z"></path>
</symbol>
<symbol id="icon-youtube" viewBox="0 0 32 32">
<path d="M29.384 5.513c-0.866-0.65-3.279-1.513-13.392-1.513-10.837 0-12.445 0.991-12.961 1.316-2.746 1.72-3.007 9.332-3.031 10.876 0.033 2.039 0.349 8.822 3.029 10.5 0.515 0.323 2.114 1.309 12.963 1.309 10.119 0 12.53-0.859 13.392-1.506 2.341-1.755 2.61-7.799 2.616-10.329-0.006-2.035-0.211-8.846-2.616-10.652l-0-0zM28.217 24.804c-0.348 0.261-2.347 1.114-12.226 1.114-9.55 0-11.554-0.773-11.933-1.011-0.964-0.603-1.981-3.803-2.061-8.721 0.079-4.907 1.11-8.49 2.063-9.085 0.38-0.239 2.391-1.018 11.931-1.018 9.871 0 11.875 0.858 12.225 1.12 0.856 0.642 1.772 4.024 1.785 8.969-0.013 5.022-0.936 7.995-1.785 8.632h0zM22.506 15.181l-8.988-5.749c-0.152-0.095-0.325-0.147-0.502-0.149s-0.351 0.044-0.505 0.134c-0.154 0.091-0.283 0.222-0.372 0.382s-0.136 0.341-0.137 0.525v11.5c0 0.276 0.105 0.541 0.293 0.736s0.441 0.305 0.706 0.305c0.182 0 0.36-0.052 0.516-0.149l8.989-5.751c0.3-0.189 0.483-0.527 0.483-0.892s-0.183-0.704-0.482-0.892h-0zM14.001 19.979v-7.812l6.056 3.906-6.056 3.907z"></path>
</symbol>
<symbol id="icon-phone" viewBox="0 0 32 32">
<path stroke-linejoin="round" stroke-linecap="round" stroke-miterlimit="4" stroke-width="1.6" d="M29.376 21.024c-1.694-0.209-3.376-0.505-5.040-0.888-0.406-0.136-0.84-0.164-1.261-0.083s-0.813 0.27-1.139 0.547c-0.424 0.432-1.648 1.64-2.92 2.888-4.557-2.24-8.243-5.929-10.48-10.488 1.24-1.272 2.4-2.488 2.872-2.912 0.277-0.326 0.466-0.719 0.547-1.139s0.053-0.855-0.083-1.261c-0.383-1.666-0.679-3.351-0.888-5.048-0.022-0.216-0.088-0.425-0.194-0.615s-0.249-0.356-0.421-0.488c-0.172-0.133-0.37-0.229-0.58-0.282s-0.43-0.064-0.644-0.030h-6.816c-0.281 0.025-0.545 0.149-0.744 0.35s-0.321 0.465-0.344 0.746c-0.44 6.152 2.992 12.736 3.688 14v0.048l0.096 0.184c2.491 4.321 6.079 7.909 10.4 10.4v0l0.352 0.2c1.6 0.848 7.96 4.048 13.904 3.608 0.284-0.020 0.552-0.14 0.756-0.339s0.33-0.465 0.356-0.749v-6.808c0.034-0.215 0.023-0.434-0.030-0.644s-0.15-0.408-0.282-0.58-0.299-0.316-0.488-0.421c-0.19-0.106-0.399-0.172-0.615-0.194z"></path>
</symbol>
<symbol id="icon-map" viewBox="0 0 23 32">
<path stroke-linejoin="round" stroke-linecap="round" stroke-miterlimit="4" stroke-width="1.4545" d="M11.636 1.818c-2.859 0-5.6 1.136-7.621 3.157s-3.157 4.763-3.157 7.621v0 0.785c0.436 5.905 5.338 10.655 10.778 16.8 5.68-6.415 10.778-11.273 10.778-17.585 0-2.859-1.136-5.6-3.157-7.621s-4.763-3.157-7.621-3.157zM11.636 7.418c1.026 0 2.029 0.304 2.882 0.874s1.518 1.38 1.91 2.328 0.495 1.991 0.294 2.997c-0.201 1.006-0.695 1.93-1.421 2.655s-1.651 1.218-2.657 1.417-2.049 0.096-2.997-0.298c-0.947-0.394-1.757-1.059-2.326-1.913s-0.872-1.857-0.87-2.883c0.002-1.374 0.549-2.691 1.521-3.662s2.29-1.516 3.664-1.516z"></path>
</symbol>
<symbol id="icon-leader" viewBox="0 0 32 32">
<path stroke-linejoin="round" stroke-linecap="round" stroke-miterlimit="4" stroke-width="2" d="M20.667 30h-9.333M20.667 30v-13.067c0-0.247-0.098-0.485-0.273-0.66s-0.412-0.273-0.66-0.273h-7.467c-0.248 0-0.485 0.098-0.66 0.273s-0.273 0.413-0.273 0.66v13.067M20.667 30h8.4c0.247 0 0.485-0.098 0.66-0.273s0.273-0.412 0.273-0.66v-3.578c0-0.248-0.098-0.485-0.273-0.66s-0.412-0.273-0.66-0.273h-7.467c-0.247 0-0.485 0.098-0.66 0.273s-0.273 0.413-0.273 0.66v4.511zM11.333 30v-7.623c0-0.248-0.098-0.485-0.273-0.66s-0.412-0.273-0.66-0.273h-7.467c-0.248 0-0.485 0.098-0.66 0.273s-0.273 0.412-0.273 0.66v6.689c0 0.248 0.098 0.485 0.273 0.66s0.412 0.273 0.66 0.273h8.4zM14.143 5.286l1.414-2.998c0.038-0.086 0.1-0.159 0.179-0.21s0.171-0.078 0.264-0.078c0.094 0 0.186 0.027 0.264 0.078s0.141 0.124 0.179 0.21l1.416 2.998 3.161 0.484c0.406 0.062 0.568 0.585 0.274 0.884l-2.287 2.333 0.54 3.295c0.068 0.423-0.355 0.747-0.719 0.546l-2.828-1.556-2.828 1.556c-0.362 0.199-0.787-0.123-0.719-0.546l0.54-3.295-2.287-2.333c-0.296-0.299-0.132-0.821 0.272-0.884l3.164-0.484z"></path>
</symbol>
<symbol id="icon-home" viewBox="0 0 32 32">
<path stroke-linejoin="round" stroke-linecap="round" stroke-miterlimit="4" stroke-width="2" d="M25.333 17.333v8.533c0 0.212-0.084 0.416-0.234 0.566s-0.354 0.234-0.566 0.234h-17.067c-0.212 0-0.416-0.084-0.566-0.234s-0.234-0.354-0.234-0.566v-8.533M4 12.667l12-7.333 12 7.333h-24z"></path>
</symbol>
<symbol id="icon-graph" viewBox="0 0 32 32">
<path stroke-linejoin="round" stroke-linecap="round" stroke-miterlimit="4" stroke-width="2" d="M26.667 26.667h-21.333v-21.333"></path>
<path stroke-linejoin="round" stroke-linecap="round" stroke-miterlimit="4" stroke-width="2" d="M5.333 22l10.667-10 4 4 6-6"></path>
</symbol>
<symbol id="icon-suitcase" viewBox="0 0 32 32">
<path stroke-linejoin="miter" stroke-linecap="butt" stroke-miterlimit="4" stroke-width="2" d="M10.667 9.333h10.667M10.667 9.333h-5.333c-0.707 0-1.386 0.281-1.886 0.781s-0.781 1.178-0.781 1.886v13.333c0 0.707 0.281 1.386 0.781 1.886s1.178 0.781 1.886 0.781h21.333c0.707 0 1.386-0.281 1.886-0.781s0.781-1.178 0.781-1.886v-13.333c0-0.707-0.281-1.386-0.781-1.886s-1.178-0.781-1.886-0.781h-16zM10.667 9.333v-4.533c0-0.212 0.084-0.416 0.234-0.566s0.354-0.234 0.566-0.234h9.067c0.212 0 0.416 0.084 0.566 0.234s0.234 0.354 0.234 0.566v4.533h-10.667z"></path>
</symbol>
<symbol id="icon-logo" viewBox="0 0 32 32">
<path d="M11.368 6.494v6.649h-0.779l-3.623-5.221h-0.065v5.221h-0.805v-6.649h0.779l3.636 5.234h0.065v-5.234h0.792z"></path>
<path d="M13.785 6.494v6.649h-0.805v-6.649h0.805z"></path>
<path d="M20.75 8.571h-0.805c-0.048-0.232-0.131-0.435-0.25-0.61-0.117-0.175-0.26-0.322-0.429-0.442-0.167-0.121-0.352-0.212-0.555-0.273s-0.416-0.091-0.636-0.091c-0.403 0-0.767 0.102-1.094 0.305-0.325 0.203-0.583 0.503-0.776 0.899-0.19 0.396-0.286 0.882-0.286 1.458s0.095 1.062 0.286 1.458c0.193 0.396 0.451 0.696 0.776 0.899 0.327 0.203 0.692 0.305 1.094 0.305 0.221 0 0.433-0.030 0.636-0.091s0.389-0.15 0.555-0.27c0.169-0.121 0.312-0.27 0.429-0.445 0.119-0.178 0.202-0.381 0.25-0.61h0.805c-0.061 0.34-0.171 0.644-0.331 0.912s-0.359 0.497-0.597 0.685c-0.238 0.186-0.505 0.328-0.802 0.425-0.294 0.097-0.609 0.146-0.945 0.146-0.567 0-1.071-0.139-1.513-0.416s-0.789-0.671-1.042-1.182c-0.253-0.511-0.38-1.117-0.38-1.818s0.127-1.307 0.38-1.818c0.253-0.511 0.601-0.905 1.042-1.182s0.946-0.416 1.513-0.416c0.335 0 0.65 0.049 0.945 0.146 0.296 0.097 0.564 0.24 0.802 0.429 0.238 0.186 0.437 0.413 0.597 0.682 0.16 0.266 0.271 0.57 0.331 0.912z"></path>
<path d="M22.051 13.143v-6.649h4.013v0.714h-3.208v2.247h3v0.714h-3v2.26h3.26v0.714h-4.065z"></path>
<path d="M5.707 17.351l1.974 5.597h0.078l1.974-5.597h0.844l-2.442 6.649h-0.831l-2.442-6.649h0.844z"></path>
<path d="M12.418 17.351v6.649h-0.805v-6.649h0.805z"></path>
<path d="M14.033 24v-6.649h4.013v0.714h-3.208v2.247h3v0.714h-3v2.26h3.26v0.714h-4.065z"></path>
<path d="M20.705 24l-1.818-6.649h0.818l1.39 5.416h0.065l1.416-5.416h0.909l1.416 5.416h0.065l1.39-5.416h0.818l-1.818 6.649h-0.831l-1.468-5.299h-0.052l-1.468 5.299h-0.831z"></path>
</symbol>
</defs>
</svg>
